# xmcd CD database file
#
# Track frame offsets:
#	150
#	19506
#	32667
#	42968
#	63089
#	80710
#	95510
#	105411
#	115152
#	132319
#	142534
#	147995
#	164150
#	180377
#	196162
#	218068
#	233384
#	241848
#	256913
#	268163
#
# Disc length: 3774 seconds
#
# Revision: 0
# Processed by: cddbd v1.5.2PL0 Copyright (c) Steve Scherf et al.
# Submitted via: CDex 1.51
#
DISCID=060ebc14
DTITLE=Various Artist - 100 Hits Irish Party [CD3)
DYEAR=2010
DGENRE=Divers
TTITLE0=Barnbrack-I'll Take You Home Again Kathleen
TTITLE1=Connie Foley -Galway Bay
TTITLE2=Mary Magee -My Wild Irish Rose
TTITLE3=John Kerr -Three Leaf Shamrock
TTITLE4=Pat Woods -Mountains Of Mourne
TTITLE5=Peter Tomelty-Hills Of Donegal
TTITLE6=Seamus Donnelly -Forty Shades Of Green
TTITLE7=Al Logan -The Green Glens Of Antrim
TTITLE8=Barnbrack-When You and I Were Young Maggie
TTITLE9=CorribFolk -SpancilHill
TTITLE10=Ann Mooney -Dicey Riley
TTITLE11=Pat Woods -Dublin In The Rare OulTimes
TTITLE12=Dermot O'Brien -Galway Shawl
TTITLE13=John Close -Back Home In Derry
TTITLE14=Anne and FrancieBrolly -The Town I Love So Well
TTITLE15=CorribFolk -Only Her Rivers Run Free
TTITLE16=Aran Folk -Follow Me Up To Carlow
TTITLE17=Blackthorn -Cliffs Of Dooneen
TTITLE18=Brier Folk -The Boys Of Killybegs
TTITLE19=Tara -Home By The Lee
EXTD=YEAR: 2010
EXTT0=
EXTT1=
EXTT2=
EXTT3=
EXTT4=
EXTT5=
EXTT6=
EXTT7=
EXTT8=
EXTT9=
EXTT10=
EXTT11=
EXTT12=
EXTT13=
EXTT14=
EXTT15=
EXTT16=
EXTT17=
EXTT18=
EXTT19=
PLAYORDER=
